# xmcd
#
# Track frame offsets:
#	150
#	19588
#	37448
#	61200
#	82117
#	95423
#	110460
#	129940
#	148512
#	174522
#	192633
#	212120
#	228373
#	232455
#	259982
#
# Disc length: 3504 seconds
# Revision: 0
# Processed by: cddbd v1.5.2PL0 Copyright (c) Steve Scherf et al.
# Submitted via: dBpowerAMP V12.0
#
DISCID=e00dae0f
DTITLE=Marion James  - Northside Soul
DYEAR=2012
DGENRE=Blues Soul Female
TTITLE0=I Fell   
TTITLE1=Smokin' Hot
TTITLE2=Corrupted World
TTITLE3=Crushing my Heart
TTITLE4=I'm Just What You're Looking For
TTITLE5=Next Time You See me
TTITLE6=Blues Recipe
TTITLE7=Mr. Blues
TTITLE8=I Know a Good Thing
TTITLE9=I Believe to my Soul
TTITLE10=Candy
TTITLE11=Man Size Job
TTITLE12=I Just Want to Make Love to You (Intro)
TTITLE13=I Just Want to Make Love to You 
TTITLE14=I Just Want to Make Love to You (Outro)
EXTD=
EXTT0=
EXTT1=
EXTT2=
EXTT3=
EXTT4=
EXTT5=
EXTT6=
EXTT7=
EXTT8=
EXTT9=
EXTT10=
EXTT11=
EXTT12=
EXTT13=
EXTT14=
PLAYORDER=
